<?xml version="1.0" encoding="utf-8"?>
<!-- Generator: Adobe Illustrator 24.1.3, SVG Export Plug-In . SVG Version: 6.00 Build 0)  -->
<svg version="1.1" id="Layer_1" xmlns="http://www.w3.org/2000/svg" xmlns:xlink="http://www.w3.org/1999/xlink" x="0px" y="0px"
	 viewBox="0 0 226 56" style="enable-background:new 0 0 226 56;" xml:space="preserve">
<style type="text/css">
	.st0{fill:#FFFFFF;}
	.st1{fill:#E10600;}
</style>
<g>
	<path class="st0" d="M105.5,41.83c0-1.14-1.73-1.14-1.73,0C103.77,42.96,105.5,42.96,105.5,41.83 M103.92,49.36h1.4
		c0.04,0,0.08-0.03,0.08-0.08v-5.66c0-0.04-0.04-0.08-0.08-0.08h-1.4c-0.04,0-0.08,0.04-0.08,0.08v5.66
		C103.84,49.33,103.88,49.36,103.92,49.36 M84.71,43.62c0-0.04,0.03-0.08,0.08-0.08h1.39c0.04,0,0.08,0.04,0.08,0.08v5.66
		c0,0.04-0.03,0.08-0.08,0.08h-1.39c-0.04,0-0.08-0.03-0.08-0.08l0-0.43c-0.49,0.45-1.06,0.46-1.57,0.47l-0.09,0
		c-0.83,0-1.54-0.26-2.04-0.76c-0.53-0.52-0.81-1.29-0.81-2.21c0-1.78,1.13-2.92,2.89-2.92h0.03c0.55,0,1.12,0.06,1.59,0.43
		L84.71,43.62z M84.41,47.39c0.23-0.28,0.34-0.64,0.34-1.04c0-0.73-0.44-1.49-1.51-1.49c-0.88,0-1.47,0.61-1.47,1.51
		c0,0.91,0.59,1.52,1.47,1.52C83.69,47.88,84.15,47.69,84.41,47.39 M102.99,49.36c0.04,0,0.08-0.03,0.08-0.08v-1.27
		c0-0.04-0.03-0.08-0.08-0.08c-0.14,0-0.59,0-0.69,0c-0.4-0.02-0.59-0.22-0.59-0.65v-2.16h1.27c0.04,0,0.08-0.04,0.08-0.08v-1.41
		c0-0.04-0.03-0.08-0.08-0.08h-1.26v-1.23c0-0.04-0.04-0.08-0.08-0.08h-1.4c-0.04,0-0.08,0.04-0.08,0.08l0,4.96
		c0,1.32,0.74,2.08,2.05,2.08l0.26,0H102.99z M110.24,47.55c-0.03-0.03-0.08-0.03-0.11-0.01c-0.27,0.22-0.62,0.35-0.95,0.35
		c-0.85,0-1.44-0.61-1.44-1.49c0-0.88,0.59-1.49,1.44-1.49c0.33,0,0.68,0.13,0.95,0.35c0.03,0.03,0.08,0.02,0.11-0.01l0.9-0.95
		c0.03-0.03,0.03-0.08,0-0.11c-0.58-0.55-1.17-0.78-1.98-0.78c-1.82,0-2.99,1.17-2.99,2.98c0,1.81,1.17,2.98,2.99,2.98
		c0.8,0,1.4-0.23,1.98-0.78c0.03-0.03,0.03-0.08,0-0.11L110.24,47.55z M80.57,42.14v-1.36c0-0.05-0.04-0.1-0.1-0.1h-5.04
		c-0.05,0-0.1,0.04-0.1,0.1v8.48c0,0.05,0.05,0.1,0.1,0.1h1.36c0.05,0,0.1-0.04,0.1-0.1V45.8c0-0.05,0.04-0.1,0.1-0.1h2.54
		c0.05,0,0.1-0.04,0.1-0.1v-1.36c0-0.05-0.04-0.1-0.1-0.1h-2.54c-0.05,0-0.1-0.04-0.1-0.1v-1.7c0-0.05,0.04-0.1,0.1-0.1h3.48
		C80.53,42.24,80.57,42.2,80.57,42.14 M97.81,43.62c0-0.04,0.03-0.08,0.08-0.08h1.39c0.04,0,0.08,0.04,0.08,0.08v5.66
		c0,0.04-0.03,0.08-0.08,0.08h-1.39c-0.04,0-0.08-0.03-0.08-0.08l0-0.43c-0.49,0.45-1.06,0.46-1.57,0.47l-0.09,0
		c-0.83,0-1.54-0.26-2.04-0.76c-0.53-0.52-0.81-1.29-0.81-2.21c0-1.78,1.13-2.92,2.89-2.92h0.03c0.55,0,1.12,0.06,1.59,0.43
		L97.81,43.62z M97.51,47.39c0.23-0.28,0.34-0.64,0.34-1.04c0-0.73-0.45-1.49-1.51-1.49c-0.88,0-1.47,0.61-1.47,1.51
		c0,0.91,0.59,1.52,1.47,1.52C96.78,47.88,97.25,47.69,97.51,47.39 M111.58,48.34c-0.02,0.03-0.02,0.08,0.01,0.1
		c0.83,0.83,1.73,0.94,2.52,0.94c1.1,0,1.93-0.42,2.27-1.16c0.1-0.22,0.16-0.47,0.16-0.72c0-1.49-1.28-1.76-2.4-1.84
		c-0.89-0.06-0.89-0.37-0.89-0.47c0-0.38,0.6-0.42,0.86-0.42c0.5,0,0.87,0.12,1.19,0.39c0.03,0.03,0.08,0.03,0.11-0.01l0.79-0.92
		c0.03-0.03,0.03-0.08-0.01-0.11c-0.58-0.48-1.19-0.68-2.1-0.68c-0.58,0-1.14,0.14-1.56,0.39c-0.54,0.32-0.82,0.8-0.82,1.4
		c0,1.04,0.83,1.67,2.33,1.78c0.85,0.05,0.96,0.3,0.96,0.5c0,0.31-0.41,0.47-0.82,0.47h-0.04c-0.66-0.01-1.29-0.25-1.71-0.65
		c-0.03-0.03-0.09-0.03-0.12,0.01L111.58,48.34z M90.25,43.48c1.43,0,2.39,1.11,2.39,2.75v3.05c0,0.04-0.04,0.08-0.08,0.08h-1.4
		c-0.04,0-0.08-0.03-0.08-0.08v-3.04c0-0.64-0.31-1.32-1.18-1.32l-0.03,0c-0.67,0.01-1.23,0.6-1.23,1.28v3.08
		c0,0.04-0.04,0.08-0.08,0.08h-1.39c-0.04,0-0.08-0.03-0.08-0.08v-5.65c0-0.04,0.04-0.08,0.08-0.08h1.34c0.04,0,0.08,0.03,0.08,0.08
		l0,0.5C89.12,43.68,89.64,43.48,90.25,43.48"/>
	<path class="st0" d="M68.74,45.52c0.03,0.01,0.06,0,0.08-0.02l1.77-2.73c0.02-0.03,0-0.08-0.04-0.09c-2.54-0.88-4.92,0.81-8.55,0.9
		c-0.09,0-0.19,0.11-0.12,0.23l3.92,6.05c0.06,0.1,0.19,0.04,0.18-0.06l-0.84-3.83c-0.01-0.03,0.01-0.06,0.05-0.08
		C65.47,45.78,67.69,45.03,68.74,45.52 M72.98,39.05l-1.45,2.26c-0.03,0.05-0.09,0.07-0.14,0.05c-3.35-1.69-7.22,1.41-10.63,0.67
		c-0.03-0.01-0.06-0.02-0.08-0.05c0,0-1.65-2.54-2.2-3.39c-0.07-0.11,0.02-0.26,0.16-0.23c0.3,0.07,1.58,0.35,2.58,0.42
		c5.18,0.28,7.99-2.83,11.74,0.12C73,38.93,73.01,39,72.98,39.05"/>
	<polygon class="st0" points="125.94,49.15 120.43,49.15 120.43,41.69 125.91,41.69 125.91,42.85 121.63,42.85 121.63,44.87 
		125.74,44.87 125.74,45.97 121.63,45.97 121.63,47.98 125.94,47.98 	"/>
	<polygon class="st0" points="130.44,43.9 131.77,43.9 131.77,43.93 130,46.48 131.89,49.12 131.89,49.15 130.56,49.15 
		129.28,47.24 127.99,49.15 126.67,49.15 126.67,49.12 128.55,46.48 126.78,43.93 126.78,43.9 128.1,43.9 129.28,45.77 	"/>
	<path class="st0" d="M135.6,48.22c0.24,0,0.46-0.04,0.67-0.13c0.2-0.08,0.38-0.2,0.53-0.35c0.15-0.15,0.26-0.33,0.35-0.53
		c0.08-0.21,0.12-0.43,0.12-0.68c0-0.5-0.15-0.9-0.45-1.21c-0.3-0.31-0.7-0.46-1.21-0.46c-0.25,0-0.48,0.04-0.69,0.13
		c-0.2,0.09-0.37,0.2-0.52,0.36c-0.14,0.15-0.25,0.33-0.33,0.53c-0.08,0.2-0.12,0.42-0.12,0.65c0,0.23,0.04,0.45,0.12,0.66
		c0.08,0.21,0.19,0.39,0.34,0.54c0.15,0.15,0.32,0.27,0.52,0.36C135.14,48.18,135.36,48.22,135.6,48.22 M132.76,51.59V43.9h1.03
		l0.06,0.85c0.21-0.32,0.48-0.56,0.81-0.72c0.33-0.16,0.68-0.24,1.04-0.24c0.39,0,0.75,0.07,1.08,0.21
		c0.33,0.14,0.61,0.33,0.84,0.57c0.23,0.24,0.42,0.53,0.54,0.87c0.13,0.34,0.19,0.7,0.19,1.09c0,0.4-0.06,0.78-0.19,1.11
		c-0.12,0.34-0.3,0.63-0.53,0.87c-0.23,0.25-0.51,0.43-0.84,0.57c-0.33,0.13-0.7,0.2-1.1,0.2c-0.16,0-0.33-0.02-0.51-0.04
		c-0.17-0.03-0.34-0.08-0.51-0.15c-0.17-0.07-0.32-0.16-0.47-0.28c-0.15-0.11-0.27-0.25-0.37-0.41v3.19H132.76z"/>
	<path class="st0" d="M143.56,46.03c-0.04-0.43-0.19-0.74-0.47-0.95c-0.28-0.21-0.64-0.31-1.09-0.31c-0.41,0-0.76,0.11-1.06,0.31
		c-0.3,0.21-0.49,0.53-0.57,0.95H143.56z M140.35,46.95c0.05,0.4,0.23,0.73,0.53,0.96c0.3,0.24,0.7,0.36,1.19,0.36
		c0.27,0,0.55-0.05,0.84-0.14c0.29-0.1,0.52-0.24,0.68-0.42l0.71,0.69c-0.13,0.15-0.29,0.28-0.47,0.39
		c-0.18,0.11-0.36,0.21-0.56,0.28c-0.2,0.07-0.4,0.13-0.61,0.17c-0.21,0.03-0.42,0.05-0.62,0.05c-0.43,0-0.83-0.07-1.17-0.2
		c-0.35-0.13-0.64-0.32-0.89-0.56c-0.25-0.24-0.44-0.53-0.57-0.88c-0.14-0.34-0.2-0.73-0.2-1.15c0-0.4,0.07-0.77,0.2-1.1
		c0.13-0.34,0.32-0.63,0.56-0.87c0.24-0.24,0.53-0.43,0.87-0.56c0.34-0.14,0.71-0.2,1.12-0.2c0.43,0,0.81,0.07,1.16,0.2
		c0.34,0.13,0.64,0.33,0.87,0.59c0.24,0.26,0.41,0.59,0.52,0.99c0.11,0.4,0.14,0.86,0.09,1.4H140.35z"/>
	<path class="st0" d="M146.76,43.9l0.07,0.69c0.19-0.33,0.43-0.55,0.7-0.66c0.28-0.1,0.56-0.16,0.84-0.16c0.26,0,0.5,0.04,0.73,0.12
		c0.23,0.08,0.42,0.19,0.57,0.32l-0.5,0.96c-0.14-0.11-0.27-0.19-0.41-0.24c-0.14-0.05-0.31-0.08-0.52-0.08
		c-0.19,0-0.37,0.03-0.54,0.09c-0.17,0.06-0.32,0.15-0.45,0.27c-0.13,0.12-0.23,0.27-0.31,0.45c-0.08,0.18-0.12,0.39-0.12,0.63v2.84
		h-1.1V43.9H146.76z"/>
	<path class="st0" d="M151.52,49.15h-1.1v-5.27h1.1V49.15z M150.29,42.35c0-0.23,0.07-0.4,0.21-0.51c0.14-0.11,0.3-0.17,0.47-0.17
		c0.17,0,0.33,0.06,0.47,0.17c0.14,0.11,0.21,0.28,0.21,0.51s-0.07,0.4-0.21,0.51c-0.14,0.11-0.3,0.17-0.47,0.17
		c-0.17,0-0.33-0.06-0.47-0.17C150.36,42.75,150.29,42.58,150.29,42.35"/>
	<path class="st0" d="M157.03,46.03c-0.04-0.43-0.19-0.74-0.47-0.95c-0.28-0.21-0.64-0.31-1.09-0.31c-0.41,0-0.76,0.11-1.06,0.31
		c-0.3,0.21-0.49,0.53-0.57,0.95H157.03z M153.83,46.95c0.05,0.4,0.23,0.73,0.53,0.96c0.3,0.24,0.7,0.36,1.19,0.36
		c0.27,0,0.55-0.05,0.84-0.14c0.29-0.1,0.52-0.24,0.68-0.42l0.71,0.69c-0.13,0.15-0.29,0.28-0.47,0.39
		c-0.18,0.11-0.36,0.21-0.56,0.28c-0.2,0.07-0.4,0.13-0.61,0.17c-0.21,0.03-0.42,0.05-0.62,0.05c-0.43,0-0.82-0.07-1.17-0.2
		c-0.35-0.13-0.64-0.32-0.89-0.56c-0.25-0.24-0.44-0.53-0.57-0.88c-0.13-0.34-0.2-0.73-0.2-1.15c0-0.4,0.07-0.77,0.2-1.1
		c0.13-0.34,0.32-0.63,0.56-0.87c0.24-0.24,0.53-0.43,0.87-0.56c0.34-0.14,0.71-0.2,1.12-0.2c0.43,0,0.81,0.07,1.16,0.2
		c0.34,0.13,0.64,0.33,0.87,0.59c0.24,0.26,0.41,0.59,0.52,0.99c0.11,0.4,0.14,0.86,0.09,1.4H153.83z"/>
	<path class="st0" d="M163.19,49.15v-2.81c0-0.45-0.12-0.82-0.37-1.11c-0.25-0.28-0.6-0.43-1.05-0.43c-0.22,0-0.42,0.04-0.6,0.13
		c-0.18,0.08-0.34,0.2-0.46,0.35c-0.13,0.15-0.23,0.32-0.3,0.51c-0.07,0.2-0.11,0.4-0.11,0.61v2.75h-1.1v-5.26h1l0.06,0.77
		c0.5-0.58,1.09-0.86,1.77-0.86c0.32,0,0.62,0.05,0.89,0.16c0.27,0.11,0.51,0.27,0.71,0.49c0.2,0.21,0.36,0.48,0.48,0.79
		c0.12,0.32,0.17,0.68,0.17,1.09v2.82H163.19z"/>
	<path class="st0" d="M170.15,48.48c-0.3,0.3-0.61,0.51-0.93,0.63c-0.32,0.12-0.68,0.19-1.06,0.19c-0.38,0-0.73-0.06-1.07-0.18
		c-0.34-0.12-0.63-0.29-0.88-0.52c-0.25-0.23-0.45-0.52-0.6-0.86c-0.15-0.34-0.22-0.74-0.22-1.2c0-0.45,0.07-0.85,0.22-1.2
		c0.15-0.34,0.34-0.63,0.6-0.86c0.25-0.23,0.55-0.41,0.88-0.52c0.33-0.12,0.69-0.18,1.08-0.18c0.36,0,0.7,0.06,1.01,0.18
		c0.31,0.12,0.61,0.32,0.89,0.6l-0.69,0.71c-0.17-0.15-0.36-0.26-0.57-0.34c-0.21-0.07-0.42-0.11-0.62-0.11
		c-0.23,0-0.45,0.04-0.66,0.12c-0.21,0.08-0.39,0.2-0.54,0.35c-0.15,0.15-0.27,0.33-0.36,0.54c-0.08,0.21-0.13,0.45-0.13,0.71
		c0,0.28,0.04,0.52,0.13,0.73c0.09,0.21,0.21,0.39,0.36,0.53c0.15,0.15,0.33,0.25,0.53,0.32c0.2,0.07,0.42,0.11,0.64,0.11
		c0.23,0,0.45-0.04,0.67-0.11c0.22-0.07,0.41-0.2,0.58-0.38L170.15,48.48z"/>
	<path class="st0" d="M175.03,46.03c-0.04-0.43-0.19-0.74-0.47-0.95c-0.28-0.21-0.64-0.31-1.09-0.31c-0.41,0-0.76,0.11-1.05,0.31
		c-0.3,0.21-0.49,0.53-0.58,0.95H175.03z M171.82,46.95c0.05,0.4,0.22,0.73,0.53,0.96c0.3,0.24,0.7,0.36,1.19,0.36
		c0.27,0,0.55-0.05,0.84-0.14c0.29-0.1,0.52-0.24,0.68-0.42l0.71,0.69c-0.13,0.15-0.29,0.28-0.47,0.39
		c-0.18,0.11-0.36,0.21-0.56,0.28c-0.19,0.07-0.4,0.13-0.61,0.17c-0.21,0.03-0.42,0.05-0.62,0.05c-0.43,0-0.82-0.07-1.17-0.2
		c-0.35-0.13-0.64-0.32-0.89-0.56c-0.25-0.24-0.44-0.53-0.57-0.88c-0.14-0.34-0.2-0.73-0.2-1.15c0-0.4,0.07-0.77,0.2-1.1
		c0.13-0.34,0.32-0.63,0.57-0.87c0.24-0.24,0.53-0.43,0.87-0.56c0.34-0.14,0.71-0.2,1.12-0.2c0.43,0,0.81,0.07,1.16,0.2
		c0.34,0.13,0.64,0.33,0.87,0.59c0.24,0.26,0.41,0.59,0.52,0.99c0.11,0.4,0.14,0.86,0.09,1.4H171.82z"/>
	<path class="st0" d="M53.89,43.14l-1.58,3.55h3.15L53.89,43.14z M55.9,47.77h-4.04l-0.7,1.57H49.9l3.35-7.46h1.3l3.34,7.46h-1.27
		L55.9,47.77z"/>
</g>
<g>
	<path class="st1" d="M92.98,31.59h0.55v-2.55h0.01l0.92,2.55h0.48l0.92-2.55h0.01v2.55h0.55v-3.3h-0.8l-0.89,2.58h-0.01l-0.91-2.58
		h-0.81V31.59z M89.93,28.79h1.05v2.8h0.58v-2.8h1.05v-0.5h-2.67L89.93,28.79L89.93,28.79z M83.22,31.59l26.41-26.41H93.74
		L67.33,31.59H83.22z M79.44,16.68H47.47c-9.74,0-11.45,0.52-15.62,4.69c-3.9,3.9-10.24,10.22-10.24,10.22h13.85l3.3-3.3
		c2.17-2.17,3.29-2.4,7.85-2.4h23.62L79.44,16.68z M31.42,19.49c-2.88,2.72-9.15,8.81-12.53,12.1H4c0,0,11.93-11.9,18.56-18.42
		c6.83-6.5,10.24-7.99,22.77-7.99h45.61l-9.88,9.88H46.25C37.45,15.06,35.47,15.67,31.42,19.49"/>
	<path class="st0" d="M124.38,20.05c-4.86-1.43-7.14-3.99-7.14-7.49c0-4.41,3.18-7.14,8.82-7.14h13.47v5.77h-13.5
		c-1.51,0-2.03,0.63-2.03,1.29c0,0.84,0.56,1.33,1.85,1.71l6.4,1.85c5.46,1.57,8.15,3.6,8.15,7.77c0,4.3-3.22,7.84-10.08,7.84
		h-12.39v-5.77h13.43c1.78,0,2.38-0.8,2.38-1.75c0-1.12-0.66-1.54-3.08-2.24L124.38,20.05z"/>
	<path class="st0" d="M141.81,10.67h3.39V6.4h6.12v4.27h7.17v5.07h-7.17v8.5c0,1.78,0.7,2.34,2.38,2.34h4.79v5.07h-5.56
		c-5.81,0-8.08-2.38-8.08-7.42v-8.5h-3.04L141.81,10.67L141.81,10.67z"/>
	<path class="st0" d="M172.6,15.32h-2.31c-2.59,0-3.46,1.29-3.46,4.02v3.6c0,2.76,0.87,4.06,3.46,4.06h2.31
		c2.59,0,3.43-1.29,3.43-4.06v-3.6C176.03,16.62,175.19,15.32,172.6,15.32 M182.85,22.43c0,5.88-3.64,9.59-10.18,9.59h-2.45
		c-6.54,0-10.22-3.71-10.22-9.59v-2.52c0-5.88,3.67-9.59,10.22-9.59h2.45c6.54,0,10.18,3.71,10.18,9.59V22.43z"/>
	<path class="st0" d="M193.66,10.67h6.16v5.07h-4.65c-2.38,0-3.01,0.73-3.01,2.8v13.12h-6.65V18.47
		C185.51,14.49,187.82,10.67,193.66,10.67"/>
	<path class="st0" d="M210,15.08c-2.24,0-3.01,0.91-3.01,3.18v0.46h8.71v-0.46c0-2.27-0.84-3.18-2.97-3.18H210z M206.99,23.13v0.14
		c0,2.66,1.01,3.32,3.88,3.32h10.64v5.07h-10.25c-8.22,0-11.02-3.81-11.02-9.45v-2.66c0-5.56,2.94-9.17,10.32-9.17h1.4
		c7.91,0,10.04,3.92,10.04,9.69v3.04H206.99z"/>
</g>
</svg>
